<?xml version="1.0" standalone="no"?>
<!DOCTYPE svg PUBLIC "-//W3C//DTD SVG 20010904//EN"
 "http://www.w3.org/TR/2001/REC-SVG-20010904/DTD/svg10.dtd">
<svg version="1.0" xmlns="http://www.w3.org/2000/svg"
 width="860" height="1200" viewBox="230 230 860 1200"
 preserveAspectRatio="xMidYMid meet">
<metadata>
Created by potrace 1.16, written by Peter Selinger 2001-2019
</metadata>
<g transform="translate(0.000000,1656.000000) scale(0.100000,-0.100000)"
fill="currentColor" stroke="none">
<path d="M5295 14139 c-55 -4 -145 -16 -200 -28 -55 -11 -145 -25 -200 -32
-55 -6 -140 -24 -190 -40 -49 -15 -123 -35 -163 -44 -40 -8 -94 -26 -120 -39
-26 -13 -75 -32 -107 -41 -33 -10 -75 -28 -95 -41 -19 -13 -57 -30 -83 -38
-26 -8 -63 -26 -82 -41 -19 -14 -53 -32 -76 -40 -22 -8 -54 -26 -71 -40 -17
-14 -46 -32 -65 -40 -20 -8 -51 -28 -69 -45 -19 -16 -39 -30 -44 -30 -5 0 -29
-17 -54 -37 -25 -21 -76 -60 -113 -88 -37 -27 -79 -61 -93 -75 -14 -14 -56
-55 -95 -90 -94 -87 -288 -307 -330 -375 -11 -16 -33 -46 -50 -66 -16 -20 -48
-67 -70 -103 -22 -37 -55 -89 -73 -116 -17 -27 -43 -73 -57 -102 -14 -29 -34
-69 -44 -88 -56 -103 -99 -201 -110 -244 -7 -27 -25 -74 -41 -105 -15 -31 -31
-76 -35 -101 -4 -25 -20 -80 -36 -124 -16 -43 -36 -122 -44 -175 -8 -53 -26
-143 -40 -201 -41 -175 -47 -286 -52 -1075 -7 -973 7 -1308 62 -1500 8 -27 22
-95 30 -149 9 -54 27 -125 40 -156 13 -32 32 -91 41 -131 9 -41 29 -99 44
-129 15 -30 31 -71 35 -90 4 -19 20 -59 37 -89 16 -30 35 -72 42 -95 7 -23 27
-63 44 -90 18 -28 32 -55 32 -61 0 -7 20 -43 45 -81 25 -37 45 -73 45 -79 0
-6 13 -26 29 -45 15 -19 38 -53 50 -75 12 -22 44 -67 71 -100 28 -33 58 -71
67 -85 122 -174 499 -517 661 -599 21 -11 45 -27 52 -36 8 -10 39 -28 69 -41
31 -14 63 -31 72 -40 9 -8 43 -25 77 -38 34 -14 74 -33 89 -44 16 -11 55 -27
88 -37 32 -9 81 -28 107 -41 27 -14 83 -32 125 -40 42 -9 106 -27 141 -41 41
-15 122 -31 219 -44 84 -10 198 -26 253 -34 117 -18 900 -22 944 -5 15 5 29
21 33 37 4 15 8 279 8 585 0 521 -1 558 -18 575 -16 17 -53 18 -440 24 -453 7
-554 15 -655 56 -36 14 -91 32 -124 39 -33 8 -73 23 -87 34 -15 10 -50 28 -77
38 -51 21 -117 61 -218 134 -59 43 -266 245 -266 260 0 4 -15 25 -34 45 -18
21 -41 54 -51 73 -9 19 -26 44 -36 56 -10 11 -33 47 -49 80 -17 32 -40 75 -50
94 -45 85 -92 194 -114 266 -14 44 -33 106 -44 139 -18 55 -41 168 -79 394
-11 69 -13 237 -10 940 3 833 4 858 25 936 11 44 28 125 37 179 8 54 28 128
44 165 16 36 32 82 36 101 4 19 20 60 36 90 16 30 36 75 44 99 8 25 26 59 39
76 13 17 32 49 41 70 9 22 24 49 35 60 10 11 31 41 47 66 15 25 42 65 58 89
34 49 300 320 314 320 5 0 29 16 53 36 23 20 59 44 78 52 19 8 47 25 62 37 15
13 51 31 79 40 29 10 76 30 106 46 30 16 63 29 72 29 10 0 80 17 157 37 l139
38 580 0 c567 0 582 -1 680 -23 55 -13 152 -32 215 -44 65 -11 136 -31 164
-45 27 -14 74 -31 104 -39 30 -8 66 -23 81 -33 15 -11 51 -31 81 -45 53 -25
101 -56 200 -128 61 -45 256 -240 310 -312 40 -51 86 -129 133 -221 9 -16 22
-50 29 -75 11 -37 18 -46 39 -48 29 -3 43 7 303 231 297 256 319 275 462 392
53 44 110 93 127 108 16 15 45 40 64 54 19 15 39 37 43 49 11 29 -4 82 -35
125 -13 19 -36 52 -51 74 -15 22 -41 56 -58 76 -17 20 -49 58 -71 84 -151 180
-423 421 -589 522 -15 10 -42 28 -60 41 -17 12 -58 35 -92 51 -33 16 -66 36
-73 45 -7 8 -38 25 -69 36 -32 12 -73 32 -92 46 -20 13 -60 31 -89 40 -29 8
-79 28 -110 44 -31 16 -74 32 -96 35 -22 4 -71 21 -110 37 -38 16 -107 36
-153 44 -45 8 -115 26 -155 39 -42 15 -138 33 -232 45 -88 11 -194 27 -235 35
-41 8 -140 20 -220 25 -167 11 -778 11 -925 -1z"/>
<path d="M7210 10808 c-134 -12 -240 -28 -305 -45 -55 -14 -143 -34 -197 -44
-53 -10 -123 -29 -155 -43 -33 -14 -90 -32 -128 -41 -38 -9 -88 -26 -110 -39
-22 -13 -64 -31 -94 -40 -30 -9 -75 -29 -100 -45 -25 -16 -63 -34 -83 -40 -20
-7 -48 -21 -62 -32 -14 -11 -47 -29 -73 -41 -26 -11 -62 -33 -79 -47 -17 -14
-53 -38 -80 -54 -60 -34 -109 -67 -149 -101 -16 -14 -44 -36 -61 -48 -143
-103 -581 -521 -608 -578 -10 -22 16 -57 131 -176 37 -38 140 -146 228 -238
88 -93 176 -185 195 -205 71 -74 268 -287 300 -324 63 -73 108 -70 130 8 7 26
24 62 37 81 13 20 32 53 44 75 56 110 261 349 372 435 21 16 57 44 80 61 23
18 62 44 87 59 25 15 70 41 100 59 30 18 75 38 100 45 25 7 63 23 85 35 22 13
83 33 135 44 52 11 129 30 170 43 73 22 86 22 550 23 l475 0 79 -28 c44 -15
106 -34 139 -42 32 -7 75 -25 96 -39 20 -13 50 -30 66 -37 48 -21 156 -109
215 -175 48 -54 82 -101 127 -178 12 -20 51 -113 78 -186 22 -60 36 -288 25
-403 -13 -133 -18 -153 -47 -211 -14 -27 -31 -66 -38 -86 -38 -108 -257 -337
-363 -379 -18 -8 -48 -26 -67 -41 -19 -15 -52 -31 -72 -35 -21 -4 -67 -19
-103 -35 -117 -51 -154 -53 -991 -57 -768 -4 -777 -4 -795 -25 -18 -19 -19
-49 -19 -599 0 -524 2 -580 17 -595 15 -15 90 -17 845 -19 903 -3 1010 -8
1131 -59 32 -13 84 -32 117 -41 33 -10 74 -28 91 -40 16 -13 47 -30 67 -39
100 -41 323 -256 388 -374 12 -20 30 -47 41 -58 10 -12 26 -43 34 -69 8 -27
25 -67 39 -91 14 -23 32 -75 40 -116 8 -40 25 -109 37 -153 21 -71 23 -102 22
-280 0 -188 -2 -204 -26 -275 -14 -41 -29 -95 -33 -120 -8 -49 -75 -184 -133
-268 -79 -114 -215 -247 -297 -289 -16 -9 -44 -27 -61 -39 -17 -13 -57 -33
-88 -44 -31 -10 -70 -28 -85 -40 -16 -11 -62 -27 -102 -35 -41 -9 -111 -27
-157 -41 -198 -60 -830 -60 -1006 1 -39 13 -102 31 -141 39 -38 8 -101 31
-138 50 -38 20 -76 36 -86 36 -10 0 -36 13 -58 29 -21 15 -60 37 -85 49 -25
11 -49 25 -52 31 -4 6 -31 27 -59 46 -119 80 -261 210 -341 313 -72 94 -125
166 -143 196 -10 15 -28 42 -40 60 -12 17 -37 58 -54 91 -18 33 -42 74 -54 90
-12 17 -29 51 -38 78 -9 26 -25 59 -36 74 -12 14 -25 44 -31 67 -6 22 -23 68
-39 101 -15 33 -37 78 -47 100 -27 57 -55 57 -138 1 -36 -26 -70 -46 -74 -46
-4 0 -39 -20 -76 -45 -38 -25 -74 -45 -80 -45 -6 0 -28 -13 -48 -30 -20 -16
-56 -38 -80 -49 -24 -10 -50 -26 -58 -36 -8 -10 -34 -26 -58 -36 -24 -11 -60
-33 -80 -49 -20 -17 -42 -30 -48 -30 -6 0 -42 -20 -80 -45 -37 -25 -74 -45
-81 -45 -7 0 -27 -13 -45 -29 -18 -16 -51 -36 -73 -45 -22 -9 -49 -25 -60 -35
-11 -11 -45 -31 -75 -46 -30 -15 -64 -35 -75 -46 -11 -10 -37 -25 -57 -33 -59
-25 -137 -88 -143 -116 -4 -17 7 -58 29 -116 19 -49 41 -120 50 -156 9 -37 29
-91 45 -120 16 -29 32 -67 36 -84 3 -18 20 -53 36 -79 17 -26 39 -72 50 -101
11 -30 25 -56 30 -60 5 -3 23 -32 39 -64 16 -32 34 -61 40 -65 6 -4 21 -28 34
-54 14 -26 40 -67 60 -92 19 -24 51 -64 70 -89 192 -247 364 -422 539 -548 18
-13 43 -34 57 -47 14 -12 43 -32 66 -43 22 -11 47 -28 55 -38 8 -9 37 -28 66
-40 28 -13 54 -28 58 -35 4 -6 37 -25 74 -41 36 -17 77 -38 91 -48 14 -10 48
-25 75 -34 28 -10 70 -28 94 -42 24 -13 70 -31 101 -39 31 -8 81 -26 111 -39
30 -13 88 -31 129 -39 41 -9 115 -27 165 -42 49 -14 168 -37 265 -50 96 -13
222 -32 280 -42 91 -15 174 -17 615 -18 488 0 516 1 640 23 72 13 193 32 270
42 77 10 176 30 220 44 44 14 114 32 155 41 41 9 89 24 107 35 19 11 66 29
106 41 39 12 88 33 107 45 19 13 54 30 77 38 23 8 65 31 93 50 29 20 57 36 62
36 42 0 341 261 461 402 136 159 145 171 173 224 14 27 36 61 50 77 13 16 24
34 24 41 0 7 18 41 39 77 22 36 44 83 50 104 6 22 22 56 35 76 14 20 33 68 42
105 9 38 27 89 39 114 13 25 33 94 45 154 12 60 28 126 36 148 23 67 34 152
49 398 21 339 1 694 -50 870 -14 47 -31 120 -39 162 -8 43 -26 97 -39 120 -14
24 -34 75 -46 115 -12 40 -26 75 -32 79 -6 3 -24 35 -40 70 -15 36 -40 79 -54
98 -14 18 -25 36 -25 41 0 8 -68 103 -132 184 -39 48 -190 204 -264 272 -42
39 -161 127 -193 143 -15 8 -34 22 -41 31 -8 9 -32 26 -54 37 -22 11 -56 33
-76 48 -19 16 -46 31 -60 35 -49 14 -70 34 -70 67 0 34 -7 26 165 176 92 81
207 204 240 257 11 17 33 46 50 66 16 20 39 51 50 69 74 122 107 181 125 220
11 25 36 77 55 115 18 39 37 86 40 105 4 19 20 64 35 100 16 36 36 108 45 160
8 52 26 142 38 200 19 91 22 135 21 335 0 197 -3 245 -21 330 -12 55 -29 139
-37 187 -8 47 -26 110 -39 140 -13 29 -32 79 -41 112 -10 32 -28 75 -41 95
-13 20 -31 56 -40 81 -9 25 -26 56 -39 70 -13 14 -32 41 -41 60 -66 134 -329
407 -507 528 -129 87 -174 115 -212 128 -22 8 -54 25 -71 38 -17 14 -58 32
-91 42 -32 9 -84 29 -114 44 -31 16 -78 31 -105 35 -28 4 -84 18 -125 31 -120
37 -154 42 -411 64 -330 27 -924 26 -1229 -2z"/>
</g>
</svg>
