<svg xmlns="http://www.w3.org/2000/svg" viewBox="0 0 500 500">
  <path fill-rule="evenodd" fill="#D97757"
    d="M 313.13,92.40 A 200,200 0 1,0 313.13,407.60 L 262.65,342.99 A 118,118 0 1,1 262.65,157.01 Z M 313.13,92.40 A 71.19112912870581,67.8010753606722 0 1,1 313.13,228.00 Z M 313.13,124.94 A 37.01938714692702,35.25655918754955 0 1,0 313.13,195.46 Z M 313.13,272.00 A 71.19112912870581,67.8010753606722 0 1,1 313.13,407.60 Z M 313.13,304.54 A 37.01938714692702,35.25655918754955 0 1,0 313.13,375.06 Z M 262.65,228.00 L 333.07,228.00 L 333.07,272.00 L 262.65,272.00 Z"/>
</svg>
